<?xml version="1.0" standalone="yes"?>
<svg xmlns="http://www.w3.org/2000/svg" width="2184" height="1364">
<path style="stroke:#29292c; fill:none;" d="M813 73L814 97L820 92C828.038 89.452 834.234 89.543 841 95L842 127M734 76L748 123L752 120C754.297 108.901 757.516 86.6191 766 79L783 124C791.634 113.221 795.166 90.6188 797 77M766 77L766 79M230 80L230 94L217 95M297 107C308.705 99.104 319.017 91.0312 328 80L362 106M151 81L151 94L166 94M266 81L266 145L244 146M139 82L141 86M163 82L161 86M89 83L89 100L93 104C95.4436 120.546 106.893 138.475 122 146M1480 83L1488 85L1520 84L1521 91M1536 83L1544 85L1553 83M1631 116L1640 117L1639 128L1619 137L1613 136C1594.47 124.6 1594.48 95.8027 1613 84L1628 84L1636 91L1650 90L1651 89L1652 88L1652 87M1814 83L1823 85L1832 83M1844 83L1853 85L1861 83M1896 83L1904 85L1913 83M1972 92L1973 87L1979 83C1996.23 83.0115 2004.9 96.4221 2000 113L2001 134L2003 136L2009 136M2077 131L2071 128L2067 132L2060 129C2053.05 135.241 2047.07 136.691 2038 136C2019.24 124.876 2019.68 95.6766 2038 84L2053 84L2061 91L2077 88L2077 87M170 84L186 85L203 84M496 84L496 108L484 107L478 112L477 118L478 124L486 129L496 127L496 132C491.38 138.624 485.954 143.11 478 145M1688 84L1693 109C1684.55 118.26 1679.68 125.538 1666 123L1662 119L1662 108L1666 105L1673 106M1693 110L1701 135L1706 133C1709.35 118.528 1714.24 98.6145 1722 86L1733 88C1739.05 84.8113 1744.27 83.7557 1751 85L1755 92L1755 95L1753 100L1747 104L1735 99L1735 99M186 85L185 95L175 96L174 97L175 108L175 120L174 132L175 133L199 133L201 131L200 120L200 108L201 98L199 96L186 96M1488 85L1489 109L1488 134L1490 136L1520 136L1522 134L1522 128M1544 85L1545 111C1557.31 103.894 1566.13 96.8616 1577 111L1577 134L1579 136L1585 136M1823 85L1822 114C1810.43 119.69 1807.16 140.323 1790 136L1789 133M1853 85C1853 100.77 1851.69 116.684 1856 132L1867 137L1873 136L1881 129L1883 123L1879 109L1872 109L1868 117L1868 118L1868 119L1868 120M1904 85L1905 111C1917.31 103.894 1926.13 96.8616 1937 111L1937 134L1939 136L1945 136M590 89L595 98M668 89L647 92L635 111C634.631 128.874 639.88 141.357 660 143M411 91C410.687 106.18 405.562 124.861 395 136L390 137L382 131C380.654 124.06 379.418 117.97 381.518 111C382.894 106.432 385.691 102.391 389.043 99.0432C414.422 73.6973 458.257 109.62 429.985 135.895C425.31 140.239 419.787 141.781 414 144M861 106C862.496 98.7758 864.688 94.0991 871 90L881 90L889 98L890 105L886 108L862 107C859.417 115.995 864.677 123.332 872 128L888 127M908 91L909 98L926 90M937 106C938.496 98.7758 940.688 94.0991 947 90L957 90L965 98L966 105L962 108L938 107C935.417 115.995 940.677 123.332 948 128L964 127M986 92L1001 90L1008 95L1008 107L1009 120C1001.76 125.263 995.98 127.994 987 128L981 121L981 116L989 108L1008 107M1026 127L1045 127L1050 121L1050 116L1027 102L1026 98L1027 94C1034 88.6624 1040.81 90.354 1049 91M610 94L646 91M135 94L149 97L137 110M151 94L149 96M460 95L521 94M580 94L584 102M231 95L239 96L231 114L242 123M814 97L813 127M149 98L151 110M534 124L555 99L559 99L595 137M909 99L908 127M89 100C85.0349 105.354 84.0262 112.011 81.2184 118C75.7723 129.617 68.65 138.726 58 146M309 100L314 105C323.804 105 338.242 107.674 347 103L348 102L349 101L350 100M152 101L165 107M1508 103L1508 112L1508 113L1508 114L1508 115M1957 103L1959 111L1957 119M248 106L282 106M175 108L200 108M497 109L497 126M1489 109L1507 109M1545 111L1544 134L1546 136L1552 136M1905 111L1904 134L1906 136L1912 136M1959 111L1970 111L1978 119L2000 113M231 114L216 125M1823 115L1823 134L1825 136L1831 136M1641 116L1648 116M151 118L151 124L165 125M230 118L230 147M175 120L200 120M299 120L320 121L360 120M320 121L314 138L314 142L310 145L300 145M1009 122L1010 127M748 123L748 125M136 125L150 125L150 133L167 147L182 140M1640 129L1640 135M343 130L350 141L357 147M150 133L137 145M1488 134L1480 136M1544 134L1536 136M1577 134L1569 136M1904 134L1896 136M1937 134L1929 136M2001 134L1993 136M194 140L203 147M350 141C342.161 145.248 320.862 147.131 313 143M163 145L165 147M267 146L285 146M1240 237C1240 221.595 1234.91 195.51 1245 183L1255 183L1255 183M1315 183L1316 207L1322 202C1330.04 199.452 1336.23 199.543 1343 205L1344 237M1023 192L1022 232L1027 238L1035 238M1288 192L1287 232L1292 238L1300 238M1482 217C1482.22 206.58 1486.2 199.595 1495 194C1509.87 192.826 1516.51 195.186 1525 208C1525.01 225.013 1526.5 236.222 1510 246C1493.44 247.261 1476.44 235.982 1482 217C1490.56 221.568 1516.44 221.568 1525 217M1622 193L1629 194L1631 196C1633.89 208.192 1640.74 222.808 1648 233C1656.47 225.806 1665.35 205.993 1667 195L1659 193M1631 195L1639 193M1668 194L1670 193L1675 193M1558 200C1576.61 189.143 1597.37 192.462 1609 211L1607 240L1601 246L1595 247L1587 242L1585 226L1586 217L1584 215L1577 215M148 196L148 213L157 214M174 196L174 220L161 221M257 196C257 210.473 255.664 231.527 264 244C270.136 238.522 274.103 230.986 276 223M267 196L278 203L280 210L281 210L282 210L283 210M192 197L192 220L184 221L183 222L183 250L167 251L168 241L167 232L168 231L198 231L200 233L199 241C200.639 246.541 198.975 250.764 206 251L206 251M563 197L561 205C571.416 210.559 590.286 207 602 207M309 199L351 199L352 200L352 210L350 212L309 212L308 211L309 199M518 260C501.624 264.841 479.099 261 462 261L460 259L460 201L461 200L519 200C524.61 218.979 518.83 243.262 520 263M739 201L740 208L757 200M768 216C769.496 208.776 771.688 204.099 778 200L788 200L796 208L797 215L793 218L769 217C766.417 225.995 771.677 233.332 779 238L795 237M837 237L819 236C812.223 226.473 812.5 217.938 815 207C822.1 200.283 827.694 199.824 837 201M877 202L883 209L883 228L873 238L863 238C851.095 230.412 851.13 219.555 854 207L860 201L877 202M931 208L931 231C923.535 235.403 917.739 237.994 909 238C897.984 229.4 899.08 217.051 903 205L906 202L922 201L930 207L931 201M951 237L951 209L962 200C968.75 200.005 973.61 200.653 979 205L980 237M1013 201L1036 200M1094 202L1100 209L1100 228L1090 238L1080 238C1068.1 230.412 1068.13 219.555 1071 207L1077 201L1094 202M1119 237L1119 209L1130 200C1136.75 200.005 1141.61 200.653 1147 205L1148 237M1213 202L1219 209L1219 228L1209 238L1199 238C1187.1 230.412 1187.13 219.555 1190 207L1196 201L1213 202M1231 201L1253 200M1278 201L1301 200M1363 216C1364.5 208.776 1366.69 204.099 1373 200L1383 200L1391 208L1392 215L1388 218L1364 217C1361.42 225.995 1366.68 233.332 1374 238L1390 237M951 201L952 206M1001 201L1001 237M1050 201L1050 237M1119 201L1120 206M163 202L203 202M561 205L557 208L537 207M91 207C90.6867 222.18 85.5616 240.861 75 252L70 253L62 247C60.654 240.06 59.4176 233.97 61.5177 227C62.8942 222.432 65.6911 218.391 69.0432 215.043C94.4222 189.697 138.257 225.62 109.985 251.895C105.31 256.24 99.7868 257.781 94 260M411 207C410.687 222.18 405.562 240.861 395 252L390 253L382 247C380.654 240.06 379.418 233.97 381.518 227C382.894 222.432 385.691 218.391 389.043 215.043C414.422 189.697 458.257 225.62 429.985 251.895C425.31 256.239 419.787 257.781 414 260M651 207C650.687 222.18 645.562 240.86 635 252L630 253L622 247C620.654 240.06 619.418 233.97 621.518 227C622.894 222.432 625.691 218.391 629.043 215.043C654.422 189.697 698.257 225.62 669.985 251.895C665.31 256.239 659.787 257.781 654 260M1316 207L1315 237M557 208L555 214L554 219L593 223L592 235L592 248L592 262L580 264M490 209L490 231L477 232L476 233L476 247L477 248L503 248L505 246L505 233L491 232M740 209L739 237M217 263L224 226L223 211C238.82 206.324 260.485 210 277 210M164 212L202 212M136 214L147 214L147 225L157 235M1586 217L1588 215L1593 215M1561 217L1569 230C1566.18 238.91 1564.79 244.133 1555 247L1543 240L1543 224C1548.18 217.369 1552.91 216 1561 217M470 218L509 218M175 221L183 222M193 221L205 221M306 221L353 221L355 223L354 231L354 241L355 249L353 251L342 252C334.933 249.911 324.067 249.911 317 252L306 251L305 250L306 241L306 231L306 221M553 221L550 226L538 236M148 226L148 263M224 226L243 226L244 227C244 235.269 244.704 244.873 240 252L233 253M553 226L554 235L554 248L553 263M1569 230L1585 226M135 249L143 230L144 229L145 228L146 228M306 231L354 231M931 233L930 248C922.074 258.308 913.632 257.256 902 255M1648 233L1643 244L1634 247L1631 244M554 235L592 235M168 241L199 241M306 241L354 241M264 244L264 248L247 262M554 248L592 248M263 249L274 263L279 263L283 251M159 251L165 252L166 252M184 251L199 252M317 252L317 256C311.012 259.408 302.99 263.449 296 263L295 263L294 263L293 263M342 252L342 256L362 263L363 263L364 263L365 263M167 253L167 263M200 253L199 262L189 264M460 261L460 263M809 293L810 317L816 312C824.038 309.452 830.234 309.543 837 315L838 347M1108 294L1107 316L1107 317L1108 344L1108 345L1108 346L1108 347M1031 302L1030 342L1035 348L1043 348M1270 302L1269 342L1274 348L1282 348M1480 303L1488 305C1492.83 303.572 1497.98 303.942 1503 304.004C1524.07 304.263 1533.47 330.944 1521.36 346.957C1516.61 353.24 1507.56 355.798 1500 355.985C1495.6 356.095 1491.91 356.089 1488 354L1480 356M1584 303L1592 305L1600 303M1638 308C1646.44 302.255 1655.41 303.588 1665 304L1670 306C1674.99 310.364 1680.51 314.478 1682.75 321C1687.41 334.533 1680.42 359.702 1662 356.28C1654.87 354.956 1652.26 349.061 1647 345C1637.53 356.622 1624.32 361.622 1615 347L1616 330M1809 303L1818 305L1827 303M1922 303L1929 304L1931 306C1933.89 318.192 1940.74 332.808 1948 343C1956.47 335.806 1965.35 315.993 1967 305L1959 303M1931 305L1939 303M1968 304L1970 303L1975 303M1716 310C1734.61 299.143 1755.37 302.462 1767 321L1765 350L1759 356L1753 357L1745 352L1743 336L1744 327L1742 325L1735 325M1857 310C1875.61 299.143 1896.37 302.462 1908 321L1906 350L1900 356L1894 357L1886 352L1884 336L1885 327L1883 325L1876 325M1488 305L1488 354M1592 305L1591 330L1592 345L1589 352L1583 356L1577 357L1565 350L1564 316L1561 310L1560 309L1556 307L1550 307L1543 313L1543 324C1554.62 334.333 1576.37 330 1591 330M1818 305L1817 334C1805.43 339.69 1802.16 360.323 1785 356L1784 353M759 347L759 319L770 310C776.75 310.005 781.61 310.653 787 315L788 347M856 326C857.496 318.776 859.688 314.099 866 310L876 310L884 318L885 325L881 328L857 327C854.417 335.995 859.677 343.332 867 348L883 347M903 311L904 318L921 310M933 326C934.496 318.776 936.688 314.099 943 310L953 310L961 318L962 325L958 328L934 327C931.417 335.995 936.677 343.332 944 348L960 347M980 347L980 319L991 310C997.75 310.005 1002.61 310.653 1008 315L1009 347M1021 311L1044 310M1106 341C1099.42 346.054 1094.25 347.995 1086 348L1077 336L1077 322L1080 315L1087 310L1097 310L1107 317M1178 318L1178 341C1170.53 345.403 1164.74 347.994 1156 348C1144.98 339.4 1146.08 327.051 1150 315L1153 312L1169 311L1177 317L1178 311M1198 347L1198 319L1209 310C1215.75 310.005 1220.61 310.653 1226 315L1227 347M1260 311L1283 310M739 311L739 347M759 311L760 316M980 311L981 316M1128 311L1128 347M1198 311L1199 316M1248 311L1248 347M1292 311L1304 344L1308 346L1307 353L1300 365L1290 367M1323 311L1308 346M73 312L76 317L79 320L83 322L83 329L84 330L113 330L115 332L114 339L114 346L115 351L112 354L111 354L106 354L105 355L105 363L125 363M106 312L104 319L96 322L83 321M167 312L170 317L170 323L171 324L189 323L189 319L194 312M583 312L583 318L574 320L562 319M147 313L151 318L151 323L169 324M417 313L417 318L410 324L410 347L376 348M386 314L377 327M538 314L555 314M385 317L392 320L408 320L409 321L410 322L411 323M810 317L809 347M77 318L56 320M300 318L330 319L359 318M233 319L243 341L270 328M330 319L330 351L363 352M418 319L425 319L429 327M427 319L442 319M584 319L591 320L604 319M904 319L903 347M105 320L123 320M392 320L393 325L393 326M574 320L574 324L570 328L570 329L575 335L575 355L573 357L560 357M591 320L591 324L603 331M631 321L661 321L660 325L623 357M96 322L96 336L99 339L114 339M509 376C504.372 374.536 499.399 374.222 495 372.001C482.764 365.822 480.105 350.678 485.999 339C488.568 333.911 493.144 330.462 495 325L500 323L517 322M136 378C141.708 360.453 142 343.285 142 325L150 324M190 324L202 324M459 327L494 324M534 325L557 325M1744 327L1746 325L1751 325M1885 327L1887 325L1892 325M1719 327L1727 340C1724.18 348.91 1722.79 354.133 1713 357L1701 350L1701 334C1706.18 327.369 1710.91 326 1719 327M1860 327L1868 340C1865.18 348.91 1863.79 354.133 1854 357L1842 350L1842 334C1847.18 327.369 1851.91 326 1860 327M308 328L313 340M352 328L345 341M1633 329L1640 328L1648 337L1654 329L1664 330M562 331L564 331L569 328M105 356C94.9962 350.661 77.2383 354 66 354L64 352L65 346L64 331L65 330L82 330L82 334L72 345L114 346M185 331L185 339L182 349L175 354L171 354L170 355L169 363L169 374L171 379L178 379L191 367L182 349M150 332L160 332L162 334L162 342L154 343L153 344L154 353L154 363L154 375L168 373M162 333L173 332M591 333L591 356L605 357M516 334L521 341M1818 335L1818 354L1820 356L1826 356M384 336L436 336M537 336L555 336M1727 340L1743 336M1868 340L1884 336M1648 337L1648 345M508 338L512 344M563 339L603 339M186 340L203 340M243 341C236.6 348.239 230.368 352.893 229 363L232 370C243.175 377.301 261.411 376.825 274 373M643 341C655.824 347.579 674.515 339.354 675 362L673 367C668.744 371.156 665.071 374.374 659 375L653 362L644 360L637 364L637 372C643.189 376.957 651.774 378.856 659 375M199 342C198.65 350.019 196.099 357.779 191 364M148 343L153 345M163 343L172 343L173 343L174 343L175 343M1178 343L1177 358C1169.07 368.308 1160.63 367.256 1149 365M1948 343L1943 354L1934 357L1931 354M170 344L170 353L154 353M65 346L71 346M537 346L555 346M411 348L426 349L443 348M565 348L601 348M426 349L426 377L422 380L414 380M296 352L329 352M330 353L330 379M574 356L578 358L584 357L593 369C594.538 374.363 598.958 377.089 604 379M538 375L538 359L540 357L552 357L554 359L555 368L554 375L553 376L538 378L538 379M586 358L590 357M577 358L572 366L573 376L587 376M377 360L392 361C406.985 356.57 427.361 360 443 360M392 361L392 366L401 374M55 363L72 364C80.9229 361.362 94.9625 361.848 104 364M154 363L169 363M72 364L72 368L80 375M594 368L601 364M105 365L102 380L92 380M555 368L561 369L569 366L570 366L571 366L572 366M191 368L203 379M146 375L152 375M573 376L569 379L564 379M1480 413L1488 415C1492.83 413.572 1497.98 413.942 1503 414.004C1524.07 414.263 1533.47 440.944 1521.36 456.957C1516.61 463.24 1507.56 465.798 1500 465.985C1495.6 466.095 1491.91 466.089 1488 464L1480 466M1544 413L1552 415C1563.29 411.663 1575.7 413.502 1583 423L1583 432L1581 437C1572.44 442.595 1563 443 1553 443L1552 444L1552 464L1554 466L1561 466M1697 413L1706 415L1715 413M1735 413L1743 415L1752 413M1787 413L1796 415L1805 413M1840 413L1848 415C1852.83 413.572 1857.98 413.942 1863 414.004C1884.07 414.263 1893.47 440.944 1881.36 456.957C1876.61 463.24 1867.56 465.798 1860 465.985C1855.6 466.095 1851.91 466.089 1848 464L1840 466M1930 438L1923 434L1914 434L1910 436L1906 442L1908 463L1909 464L1916 467L1923 466C1931.42 459.427 1934.02 449.211 1931 439L1933 420L1940 413L1948 413L1955 422L1954 425M1623 414L1628 439C1619.55 448.26 1614.68 455.538 1601 453L1597 449L1597 438L1601 435L1608 436M1628 440L1636 465L1641 463C1644.35 448.528 1649.24 428.614 1657 416L1668 418C1674.05 414.811 1679.27 413.756 1686 415L1690 422L1690 425L1688 430L1682 434L1670 429L1670 429M1488 415L1488 464M1552 415L1552 442M1706 415L1722 466L1727 464L1743 415M1796 415L1795 444C1783.43 449.69 1780.16 470.323 1763 466L1762 463M1848 415L1848 464M627 428L627 445L637 446L642 450L654 451L658 449L660 437L650 435L644 442L645 449M651 429L651 435M411 432L412 440L415 443L415 444L417 455L421 457L421 462C423.381 466.189 425.041 469.422 423 474L413 472M481 432L479 443L492 442M153 435L163 457L190 444M661 436L680 436M250 439C249.687 454.18 244.562 472.861 234 484L229 485L221 479C219.654 472.06 218.418 465.97 220.518 459C221.894 454.432 224.691 450.391 228.043 447.043C253.422 421.697 297.257 457.62 268.985 483.895C264.31 488.24 258.787 489.781 253 492M348 492C343.372 490.536 338.399 490.222 334 488.001C321.764 481.822 319.105 466.678 324.999 455C327.568 449.911 332.144 446.462 334 441L339 439L356 438M415 441L430 438M71 440L109 440M298 443L333 440M412 440C404.151 444.189 393.611 441 385 441M542 440C542.127 455.327 541.067 480.37 556 489L558 489L561 488L568 475M479 443C473.498 446.262 465.219 446.137 459 445M587 443C592.64 452.663 597.764 463.636 598 475M506 444L518 451M1796 445L1796 464L1798 466L1804 466M476 446C474.366 456.899 467.068 467.998 461 477M615 446L626 446L626 454L632 457L636 463L636 464L636 465L636 466M1000 446L1001 497M1166 446L1167 497M1144 447C1144 456.875 1145.33 466.727 1139 475L1148 488L1148 491L1147 494L1143 497L1126 496L1127 491L1140 477M1260 447L1263 494L1267 497L1295 496L1300 490C1297.91 478.258 1287.75 472.788 1281 464C1285.16 456.169 1295.12 452.28 1303 449M1337 447L1340 494L1344 497L1357 497L1364 489L1374 498L1383 498L1388 493L1387 488L1378 475L1371 476L1364 488M1409 447L1410 492L1405 497L1389 494L1389 494M973 448L974 448M1383 448L1383 454L1381 456L1375 454L1371 459L1366 454L1366 452M355 450L360 457M659 450L670 451L683 450M1375 450L1375 454M670 451L668 460L682 462M654 452L652 461L644 468L643 469L642 470L641 471M347 454L351 460M422 456L434 454M417 455L413 458L384 457M626 456L625 460C629.897 469.175 627 484.717 627 495M163 457C156.6 464.239 150.368 468.893 149 479L152 486C163.175 493.301 181.411 492.825 194 489M501 457L501 476L484 476L478 481L478 489C483.774 493.063 489.081 494.265 496 493L502 485L502 477M1118 459L1139 475M614 481L622 462L623 461L624 460L625 460M653 462L667 462L667 492L651 494L651 483L651 472L648 466M983 484L971 485L966 482L965 472L972 464L977 464C982.928 468.964 986.893 476.668 983 484C984.312 489.251 982.289 492.922 979 497C960.879 500.364 926.134 505.401 918 485L919 477M1223 464L1223 465M1552 464L1544 466M1050 465L1050 466M1104 492L1088 495L1079 481L1079 480L1080 475L1088 469L1097 469M68 471L69 485L76 490L114 489M651 472L681 472M388 474L388 487C397.286 494.605 412.642 494.704 424 492M1025 478L1029 487L1029 493L1035 497L1048 497L1055 491L1056 483M504 479L516 486M1241 481L1244 501C1233.32 519.102 1210.1 521.125 1202 500L1204 492M651 483L681 483M1055 492L1060 497L1084 497L1085 496L1086 495L1087 494M668 493L684 493M1030 494C1023.88 502.948 1020.43 511.637 1009 515M1482 547C1482.22 536.58 1486.2 529.595 1495 524C1509.87 522.826 1516.51 525.186 1525 538C1525.01 555.013 1526.5 566.222 1510 576C1493.44 577.261 1476.44 565.982 1482 547C1490.56 551.568 1516.44 551.568 1525 547M1622 523L1629 524L1631 526C1633.89 538.192 1640.74 552.808 1648 563C1656.47 555.807 1665.35 535.993 1667 525L1659 523M1631 525L1639 523M1668 524L1670 523L1675 523M1820 567L1819 572C1827.06 577.669 1834.01 576.855 1843 574L1848 567L1848 562L1839 550L1827 548L1821 541L1820 530C1825.64 523.261 1831.73 523 1840 523L1845 525L1847 532M1558 530C1576.61 519.143 1597.37 522.462 1609 541L1607 570L1601 576L1595 577L1587 572L1585 556L1586 547L1584 545L1577 545M1686 533L1687 525L1688 524L1720 525L1719 530L1688 570L1687 574C1695.97 578.785 1710.96 576 1721 576L1723 574L1723 568M1755 533L1755 525L1756 524L1777 525L1799 524L1800 533M1879 533L1879 525L1880 524L1905 525L1914 524M1777 525L1777 574L1779 576L1787 576M1905 525L1904 554L1880 576L1870 576L1869 573M89 568L74 568L74 549L86 545M1586 547L1588 545L1593 545M120 546C120 566.14 123.665 590.404 119 610L106 612M378 546L397 546M1561 547L1569 560C1566.18 568.91 1564.79 574.133 1555 577L1543 570L1543 554C1548.18 547.369 1552.91 546 1561 547M406 547L421 549L439 547L441 549C440.999 557.694 440.959 567.58 436 575L426 573M1826 547L1822 550L1814 549M243 548L242 556L238 559L221 557M496 548L496 572L484 571L478 576L477 582L478 588L486 593L496 591L496 596C491.38 602.625 485.954 607.11 478 609M56 551L74 549M307 549L346 550L347 549L348 549L349 549M421 549L418 561L408 557M1840 551L1854 549M345 550L344 554L329 563L329 609L326 612L316 612M153 551L163 573L190 560M551 553L581 553L580 557L543 589M100 554L100 591M1905 555L1905 575M243 557L265 556M631 556L669 556M1569 560L1585 556M374 557L400 557M460 559L521 558M238 559L234 568L233 572L235 574L248 572L255 579L253 583L254 594M406 576L419 561L427 566M346 563L350 576L362 566M1648 563L1643 574L1634 577L1631 574M297 566L311 566L317 571C325.104 571 335.727 572.882 343 569L344 568L345 567L346 566M312 567C310.931 580.086 305.066 592.8 297 603M56 568L74 568M378 568L397 568M72 570L72 578L56 598M255 579L275 572M163 573C156.6 580.239 150.368 584.893 149 595L152 602C163.175 609.301 181.411 608.825 194 605M233 573L222 585M497 573L497 590M563 573C575.824 579.579 594.515 571.354 595 594L593 599C588.744 603.156 585.071 606.374 579 607L573 594L564 592L557 596L557 604C563.189 608.957 571.774 610.856 579 607M1777 574L1768 576M72 578C76.8954 586.256 74 601.488 74 611M351 578C351.204 587.576 356.195 595.659 362 603M378 578L398 578M420 580L429 587M76 581L87 589M272 608L239 607L236 603L236 595C240.678 588.877 245.605 585.161 253 583M317 584L342 584M628 587L629 601L636 606L674 605M379 607L379 590L380 589L395 589L397 591L397 607L379 610M417 590L417 610L432 611L434 604M438 591L444 606M408 593L405 605L403 607L398 608M313 597L346 597M1037 608L1028 610L1026 600L1034 598M901 616L902 616M912 616L913 616M938 616L940 662L946 667L957 667L964 661L970 667L978 667L979 661C989.199 650.801 1003.16 636.655 1016 651L1015 660C1004.62 669.837 992.343 668 979 668M1152 616L1153 667M1196 616L1197 616M1207 616L1208 616M1273 616L1274 667M1133 617L1134 662L1129 667L1117 667L1111 662L1111 658L1102 645L1095 646L1088 659L1098 668L1107 668L1112 663M1364 617L1365 662L1360 667L1348 667L1338 661L1338 657L1319 636L1319 631L1342 619M1383 617L1386 664L1390 667L1405 667L1409 664L1409 644M848 618L849 618M1032 622L1035 664L1039 667L1054 667L1061 661L1062 653M913 633L913 639C905.109 639.344 898.993 641.75 894 648L895 657L896 658C902.123 659.941 908.121 661.138 914 658L917 664L919 666L921 667C928.641 667 934.01 667.323 940 662L940 662M1208 633L1208 639C1200.11 639.344 1193.99 641.75 1189 648L1190 657L1191 658C1197.12 659.941 1203.12 661.137 1209 658L1212 664L1214 666L1216 667L1227 667L1234 660L1234 656L1240 647L1247 645L1256 655L1255 663L1251 667C1243.6 666.995 1238.77 665.871 1233 661M858 654L846 655L841 651L841 640L845 635L852 634C857.973 638.8 859.844 644.489 860 652L858 654L857 661C846.688 668.84 837.323 664.653 826 668L815 663M1056 635L1056 636M914 640L914 658M1209 640L1209 658M1298 648L1302 657L1302 663L1308 667L1330 667L1338 661M965 654L965 657L964 661M1088 659L1081 667C1074.56 667 1068.44 667.91 1063 664L1062 663L1061 662M780 662L778 670L779 675C789.177 690.869 812.754 687.61 825 676L826 668M1303 664C1296.88 672.948 1293.43 681.637 1282 685M146 666C144.077 681.132 138.44 699.153 144 714L149 710L151 704M186 666L186 707L188 710L187 716L180 724C173.25 723.996 168.39 723.347 163 719L164 710C171.339 705.389 177.723 705.954 186 707M73 667L83 689L110 676M164 681L200 679M1405 681L1405 682M1464 688L1465 688M83 689C76.5995 696.239 70.3677 700.893 69 711L72 718C83.1749 725.301 101.411 724.825 114 721M1780 691L1802 718L1802 724L1791 734L1785 734L1763 713L1759 713L1735 733M1516 692L1517 692M2035 692L2036 692M793 700L794 700M804 700L805 700M1680 723L1703 703L1708 703L1723 718M2034 723L2057 703L2062 703L2077 718M1477 705L1482 705C1487.94 709.056 1493.9 713.474 1495 721L1482 732L1478 733L1477 733L1472 732L1462 718L1477 705M1508 733L1540 705L1544 705L1572 734M1584 733L1616 705L1620 705L1648 734M1840 733L1872 705L1876 705L1904 734M188 710L201 717M1915 731L1935 711C1943.99 714.513 1948.69 725.126 1955 732L1960 732L1981 711C1989.14 714.222 1995.48 724.768 2000 732M144 714L145 724M1694 732L1710 721L1721 733M2048 732L2064 721L2075 733M1981 731L1982 731M1728 747L1728 748M1994 747L1994 748M1805 801L1827 828L1827 834L1816 844L1810 844L1789 823L1784 823L1760 843M1533 802L1534 802M1768 802L1769 802M1292 866C1280.44 868.642 1268.75 869.988 1259 862C1254.32 847.249 1263.2 840.599 1273 831L1262 820L1262 816C1267.17 812.053 1272.59 811.053 1279 811L1285 816C1284.02 822.527 1280.54 826.419 1276 831L1279 835L1304 837L1311 831L1312 823M1361 833L1356 838L1347 838L1337 829L1344 816L1351 815L1360 828L1360 832L1366 837C1381.02 837 1394.3 835.504 1406 825C1399.52 818.854 1393.18 817.591 1385 815L1380 816M1685 843L1717 815L1721 815L1749 844M1462 842L1493 816L1500 816C1505.24 819.992 1510.43 824.387 1512 831L1495 843L1487 839M1525 842L1556 816L1563 816C1568.24 819.992 1573.43 824.387 1575 831L1558 843L1550 839M227 818L227 829L228 830L254 830L255 831L255 837L242 871M619 818L619 829L620 830L646 830L647 831L647 837L634 871M1588 841L1608 821C1616.99 824.513 1621.69 835.126 1628 842L1633 842L1654 821C1662.14 824.222 1668.48 834.768 1673 842M1406 825L1413 825M1337 829L1330 837C1323.81 837 1318.22 837.752 1313 834L1312 833L1311 832M54 830L53 854M70 830L84 834L85 869L83 871L67 871M99 830L120 831L125 835L126 870L133 871M169 830L169 871M183 830L207 830L209 832L209 870M209 831L217 830M273 830L273 871M291 830L305 834L306 869L304 871L288 871M346 830C356.315 830 366.704 828.767 376 834L378 869L376 871L346 871L345 870L346 830M391 830L415 830L417 832L417 870M417 831L425 830M508 830L507 854M525 830L539 834L540 869L538 871L522 871M554 830L575 831L580 835L581 870L588 871M659 830C671.439 830 680.899 830.398 689 841L689 860L682 869L659 871M441 831L446 842L461 857L468 871M470 831C469.17 841.523 468.578 849.054 461 857M1273 831L1276 831M1654 841L1655 841M447 843C438.314 850.957 438 858.821 438 870M1786 843L1787 843M1393 851L1394 851M1304 852L1305 852M1315 852L1316 852M99 871L125 871M554 871L580 871M1544 908L1545 908M1464 912L1465 912M1564 930L1576 921L1580 921L1605 947M1462 943L1485 923L1490 923L1505 938M1750 923L1738 935L1739 940L1755 957M1617 953L1649 925L1653 925L1681 954M1694 935L1705 925L1709 925L1736 954M1517 946L1537 929L1542 929L1562 948L1570 947L1578 939M1764 951L1784 931C1792.99 934.513 1797.69 945.126 1804 952L1809 952L1830 931C1838.14 934.221 1844.48 944.768 1849 952M86 940C96.3147 940 106.704 938.767 116 944L118 979L116 981L86 981L85 980L86 940M132 940C144.439 940 153.899 940.398 162 951L162 970L155 979L132 981M174 940C184.237 940 194.225 938.826 203 945L204 981M225 940L233 979L219 981M257 940C255.748 955.867 255.676 970.672 241 980L233 980M267 940L288 941L293 945L294 980L301 981M338 940C348.315 940 358.704 938.767 368 944L370 979L368 981L338 981L337 980L338 940M389 940L388 964M408 940L408 981M429 940L429 981M447 940L450 965C458.054 962.448 462.939 961.344 468 954L469 940M489 940C488.998 954.001 488.263 973.177 473 979.387C466.289 982.117 458.091 981 451 981L449 966M506 940L506 981M541 940L548 941L551 945L551 1000M570 940L569 964M583 940C593.237 940 603.225 938.826 612 945L613 981M634 940L634 981M654 981L654 941L655 940L681 941L687 947L688 979M1476 952L1492 941L1503 953M735 964L769 965L788 964L786 948L793 942C807.819 942 815.42 948.034 825 959L825 963L853 964M1093 964L1091 948L1098 942L1106 942L1121 959L1121 964L1094 965L1073 965L1047 964L1046 964L1045 964L1044 964M1253 943L1262 944L1274 960L1273 980L1275 985L1274 992L1262 998L1256 997L1251 993L1250 983C1254.34 979.133 1258.17 977.267 1264 977L1273 980M769 948L769 949M1830 951L1831 951M789 965L824 964M878 964L888 965L910 965L931 965C941.22 961.979 960.78 961.979 971 965C981.22 961.979 1000.78 961.979 1011 965L1019 964M1122 965C1132.43 961.918 1152.57 961.918 1163 965L1184 965C1191.71 962.722 1204.29 962.722 1212 965L1221 964M1246 964L1299 964M769 965L768 995L764 995L759 998L750 997L746 993L747 979L756 978M789 965L789 1004M828 965L827 980L829 985L828 992L816 998L810 997L805 993L804 983C808.338 979.133 812.172 977.267 818 977L827 980M888 965L887 990M910 965L909 988L910 1003M931 965L931 1004M971 965L970 985L971 1004M1011 965L1010 980L1011 993L1002 998L992 997L988 993L987 983C991.338 979.133 995.172 977.267 1001 977L1010 980M1050 965L1052 990L1056 994L1063 995L1073 990L1073 965M1094 965L1094 1004M1122 965L1123 980L1120 985L1112 987L1113 993L1126 1007M1163 965L1162 980L1163 993L1154 998L1144 997L1140 993L1139 983C1143.34 979.133 1147.17 977.267 1153 977L1162 980M1184 965L1184 1004M1212 965L1213 980L1210 985L1202 987L1203 993L1216 1007M740 978L746 978M267 981L293 981M830 985L837 981L843 981L849 987L845 1000M1276 985L1283 981L1289 981L1295 987L1291 1000M949 987L953 984L970 985M890 987L909 988M1073 992L1073 1004M828 994L828 1004M1274 994L1274 1004M1011 995L1011 1004M1163 995L1163 1004M769 996L770 1012L790 1029M775 1029L771 1030L766 1029L762 1025L761 1019L769 1013M1583 1021L1605 1048L1605 1054L1594 1064L1588 1064L1566 1043L1562 1043L1538 1063M2115 1021L2137 1048L2137 1054L2126 1064L2120 1064L2099 1043L2094 1043L2070 1063M1732 1022L1733 1022M2078 1022L2079 1022M1905 1033L1893 1045L1894 1050L1910 1067M1462 1063L1494 1035L1498 1035L1526 1064M1621 1063L1653 1035L1657 1035L1685 1064M1814 1035L1839 1064L1847 1064L1878 1036M1919 1063L1951 1035L1955 1035L1983 1064M1995 1063L2027 1035L2031 1035L2059 1064M1697 1061L1717 1041C1725.99 1044.51 1730.69 1055.13 1737 1062L1742 1062L1763 1041C1771.14 1044.22 1777.48 1054.77 1782 1062M340 1050C350.315 1050 360.704 1048.77 370 1054L372 1089L370 1091L340 1091L339 1090L340 1050M391 1050C401.587 1050 412.456 1048.63 422 1054L424 1090M443 1050L442 1074M458 1050L467 1052C475.353 1047.54 487.514 1049.73 495 1055L496 1091M516 1050L516 1091M536 1050L535 1074M556 1050L556 1091M571 1050C583.439 1050 592.899 1050.4 601 1061L601 1080L594 1089L571 1091M614 1050L626 1051L621 1091M638 1050L659 1051L664 1055L665 1090L672 1091M687 1050L687 1091M467 1052L466 1087L461 1091L458 1091M1763 1061L1764 1061M2096 1063L2097 1063M827 1128L826 1112L827 1084L824 1070L829 1066L837 1067C851.82 1083.25 847 1107.52 847 1128M1033 1067L1042 1068C1047.59 1073.64 1053.16 1079.81 1054 1088L1035 1089L1013 1089L1016 1100L1006 1110C1013.51 1120.89 1020.31 1120.19 1032 1117L1034 1115L1035 1089M1095 1067L1104 1068L1116 1084L1115 1104L1117 1109L1116 1116L1104 1122L1098 1121L1093 1117L1092 1107C1096.34 1103.13 1100.17 1101.27 1106 1101L1115 1104M392 1069L392 1091M1058 1070L1059 1070M1604 1077L1604 1078M806 1103L800 1103L796 1101L792 1096L791 1092L797 1086L802 1087L806 1092L806 1103L805 1114M880 1088L897 1089C903.637 1087.04 913.363 1087.04 920 1089C929.177 1086.29 945.823 1086.29 955 1089C963.129 1086.6 976.871 1086.6 985 1089L1000 1087L1012 1088M1165 1088L1207 1089C1218.1 1085.72 1238.97 1085.65 1250 1089L1272 1089C1285.13 1085.12 1312.87 1085.12 1326 1089L1346 1089C1356.64 1085.86 1377.36 1085.86 1388 1089L1396 1088M735 1088L752 1089C758.637 1087.04 768.363 1087.04 775 1089L784 1088L791 1092M820 1088L855 1088M1055 1089L1063 1088M1088 1088L1141 1088M752 1089L753 1106L742 1111L743 1117L756 1131M775 1089L774 1110L775 1128M897 1089L898 1106L887 1111L888 1117L901 1131M920 1089L919 1110L920 1128M955 1089L955 1100L953 1102C945.305 1102.06 940.164 1104.22 935 1110C935.152 1117.13 937.348 1121.59 943 1126L952 1127L956 1122M985 1089L986 1106L975 1111L976 1117L989 1131M1055 1089L1055 1128M1207 1089L1206 1102L1207 1128M1250 1089L1250 1111L1271 1112L1272 1089M1326 1089L1325 1102L1326 1128M1346 1089L1346 1128M1388 1089L1387 1104L1388 1128M638 1091L664 1091M1167 1104C1170.23 1112.34 1174.02 1118.3 1181 1124L1187 1124L1192 1118L1187 1103L1206 1102M1286 1104C1289.23 1112.34 1293.02 1118.3 1300 1124L1306 1124L1311 1118L1306 1103L1325 1102M1373 1133L1363 1120L1362 1112L1364 1107L1368 1104L1386 1104M1118 1109L1125 1105L1131 1105L1137 1111L1133 1124M752 1107L756 1111L774 1110M897 1107L901 1111L919 1110M985 1107L989 1111L1003 1111L1004 1110L1005 1110L1006 1110M1226 1111L1230 1108L1242 1108L1249 1112M807 1112L826 1112M1272 1113L1272 1127M1033 1116L1035 1128M1116 1118L1116 1128M954 1125L962 1138M1838 1131L1860 1158L1860 1164L1849 1174L1843 1174L1822 1153L1817 1153L1793 1173M1464 1132L1465 1132M1462 1163L1485 1143L1490 1143L1505 1158M1629 1143L1617 1155L1618 1160L1634 1177M1779 1143L1767 1155L1768 1160L1784 1177M1658 1145L1663 1145C1668.94 1149.06 1674.9 1153.47 1676 1161L1663 1172L1659 1173L1658 1173L1653 1172L1643 1158L1658 1145M1689 1173L1721 1145L1725 1145L1753 1174M1517 1171L1537 1151C1545.99 1154.51 1550.69 1165.13 1557 1172L1562 1172L1583 1151C1591.14 1154.22 1597.48 1164.77 1602 1172M1476 1172L1492 1161L1503 1173M1583 1171L1584 1171M1819 1173L1820 1173M768 1190L775 1190C778.832 1194.2 782.307 1197.59 779 1203L783 1205L784 1211L765 1213L745 1213L735 1212M933 1190L940 1190C943.832 1194.2 947.307 1197.59 944 1203L948 1205L949 1211L930 1213L923 1212M768 1200L776 1202L777 1202L778 1203M933 1200L941 1202L942 1202L943 1203M783 1202L784 1204M948 1202L949 1204M785 1252L785 1212L813 1213C823.428 1209.92 843.572 1209.92 854 1213L862 1212M898 1212L908 1212L913 1218L908 1228L912 1234L929 1233L930 1213M950 1252L950 1212L979 1213L988 1212M1013 1212L1030 1213C1036.64 1211.04 1046.36 1211.04 1053 1213L1075 1213L1097 1213L1117 1213C1127.43 1209.92 1147.57 1209.92 1158 1213L1166 1212M745 1213L746 1232L745 1233L744 1234L743 1234M765 1213L765 1252M813 1213L814 1228L811 1233L803 1235L804 1241L817 1255M854 1213L853 1228L854 1241L845 1246L835 1245L831 1241L830 1231C834.338 1227.13 838.172 1225.27 844 1225L853 1228M979 1213L980 1228L977 1233L969 1235L970 1241L983 1255M1030 1213L1031 1230L1020 1235L1021 1241L1034 1255M1053 1213L1052 1234L1053 1252M1075 1213L1074 1238M1097 1213L1096 1236L1097 1251M1117 1213L1117 1252M1158 1213L1157 1233L1158 1252M903 1229L908 1228M1693 1229L1694 1229M1030 1231L1034 1235L1052 1234M1136 1235L1140 1232L1157 1233M912 1234L913 1242L907 1249L902 1249L888 1235M930 1234L930 1252M1077 1235L1096 1236M1728 1284L1712 1266L1708 1265L1702 1248L1713 1237L1718 1237L1732 1251M854 1243L854 1252M1635 1260L1647 1251L1651 1251L1676 1277M1826 1252L1828 1252M1573 1253L1561 1265L1562 1270L1578 1287M1756 1253L1744 1265L1745 1270L1761 1287M1771 1273L1794 1253L1799 1253L1814 1268M1588 1276L1608 1259L1613 1259L1633 1278L1641 1277L1649 1269M1462 1281L1482 1261C1490.99 1264.51 1495.69 1275.13 1502 1282L1507 1282L1528 1261C1536.14 1264.22 1542.48 1274.77 1547 1282M1708 1265L1689 1283M1839 1267L1840 1267M1785 1282L1801 1271L1812 1283M1528 1281L1529 1281M1852 1283L1853 1283"/>
</svg>
